<?xml version="1.0" encoding="UTF-8" standalone="no"?>
<!-- Created with Inkscape (http://www.inkscape.org/) -->

<svg
   width="21.70784mm"
   height="21.707832mm"
   viewBox="0 0 21.70784 21.707832"
   version="1.1"
   id="svg1"
   xmlns="http://www.w3.org/2000/svg"
   xmlns:svg="http://www.w3.org/2000/svg">
  <defs
     id="defs1" />
  <g
     id="layer1"
     transform="translate(-86.390305,-150.3117)">
    <path
       id="path155680"
       style="display:inline;fill:#000000;fill-opacity:1;stroke:none;stroke-width:0.0762856"
       d="m 97.10651,156.0438 c -0.33796,-0.005 -0.67661,0.031 -1.0102,0.0805 -0.23069,0.046 -0.34374,0.0616 -0.56945,0.13499 -0.38191,0.12421 -0.73317,0.32299 -1.03907,0.58287 -0.44719,0.42193 -0.79155,0.82908 -0.90769,1.45239 -0.0276,0.26723 -0.0433,0.32352 -0.0306,0.59807 0.0213,0.45461 0.13377,0.90029 0.25776,1.33589 0.19244,0.5663 0.42596,1.11783 0.76046,1.61689 0.12721,0.18079 0.25914,0.35844 0.40439,0.52475 -0.14643,0.18327 -0.13538,0.40458 -0.10222,0.63204 0.0565,0.31654 0.0979,0.63595 0.13946,0.95475 0.037,0.32201 0.05,0.64583 0.0763,0.96877 0.0145,0.1677 0.0289,0.33539 0.0411,0.5033 0.0225,0.2587 0.20461,0.3899 0.46307,0.31081 0.0299,-0.009 0.0561,-0.029 0.0836,-0.0435 0.1232,-0.0974 0.25124,-0.13793 0.40704,-0.14571 0.0267,4.4e-4 0.0534,0.002 0.0801,0.003 -0.009,0.0696 0.008,0.14738 0.0643,0.22468 0.0109,0.0157 0.0228,0.0314 0.0337,0.0471 0.10022,0.13462 0.2012,0.24551 0.33704,0.29828 0.0692,0.0586 0.14828,0.10646 0.23213,0.14542 0.25343,0.0734 0.4309,-0.0769 0.52566,-0.29382 0.0233,-0.0618 0.0382,-0.11946 0.0399,-0.17402 0.005,-0.004 0.0104,-0.009 0.0155,-0.0131 0.041,-0.0368 0.0694,-0.0764 0.0874,-0.11682 0.18087,0.0175 0.36176,0.035 0.54265,0.0521 0.0314,0.01 0.0665,0.0152 0.10548,0.0155 0.0161,-3.1e-4 -0.0207,-0.003 0.0276,4.4e-4 0.23411,0.006 0.27671,-0.60186 0.0277,-0.58347 -0.24001,-0.0322 -0.4807,-0.0591 -0.72144,-0.0846 -0.26089,-0.0262 -0.52239,-0.0579 -0.7843,-0.0799 -0.054,-0.0204 -0.11384,-0.0251 -0.17046,-0.0129 -0.16862,-0.011 -0.33737,-0.0169 -0.50628,-0.0131 -0.12459,0.0164 -0.23257,0.0345 -0.33464,0.0676 -0.004,-0.0506 -0.008,-0.10129 -0.0119,-0.15198 -0.008,-0.11669 -0.0155,-0.23363 -0.0226,-0.35043 0.004,-9e-4 0.008,-0.002 0.0113,-0.003 0.49528,-0.0944 1.0007,-0.12453 1.50187,-0.17522 0.2457,-4.3e-4 0.50788,-0.0931 0.75243,-0.0473 0.39575,0.10927 0.55011,-0.45066 0.15435,-0.55992 -0.31645,-0.0798 -0.64592,-0.0113 -0.96578,0.01 -0.50112,0.0483 -1.00908,0.0782 -1.50097,0.18982 -0.003,-0.0212 -0.004,-0.0423 -0.007,-0.0635 -0.008,-0.0656 -0.0172,-0.13113 -0.026,-0.19668 v 0 c 0.0227,-0.003 0.0465,-0.007 0.0712,-0.0137 0.46986,-0.0751 0.94567,-0.10866 1.41931,-0.15138 0.34128,-0.0289 0.68244,-0.0579 1.02451,-0.0763 0.0232,-9e-4 0.0461,-0.003 0.0692,-0.003 0.40892,0.004 0.41575,-0.57351 0.006,-0.57839 -0.0323,-9e-4 -0.0641,-9e-4 -0.0963,-4.4e-4 -0.35324,0.006 -0.70571,0.0303 -1.05786,0.0581 -0.50873,0.045 -1.02258,0.0821 -1.52213,0.1925 -0.0112,-0.0673 -0.0234,-0.1347 -0.0362,-0.20174 -0.0202,-0.11231 -0.0106,-0.0533 -0.0233,-0.13409 0,-0.007 0.003,-0.0172 0.002,-0.0239 0.0694,-0.0151 0.14093,-0.02 0.21156,-0.0232 0.22021,-0.008 0.44067,-0.006 0.66095,-0.0137 0.0259,-9e-4 0.207,0.004 0.22021,-0.0205 0.17802,-0.33073 0.33482,-0.51469 -0.0524,-0.58555 -0.12235,-0.01 -0.24512,-0.005 -0.36771,-0.004 -0.0583,0 -0.10846,0.0114 -0.15019,0.0316 -0.11079,9e-4 -0.22151,0.003 -0.33225,0.007 -0.0186,0.002 -0.0374,0.003 -0.0564,0.004 -0.18706,-0.19887 -0.34928,-0.41752 -0.50481,-0.64157 -0.29749,-0.45542 -0.50477,-0.95568 -0.67615,-1.46938 -0.10728,-0.39193 -0.21259,-0.79093 -0.23093,-1.19911 -0.0101,-0.21926 0.006,-0.26805 0.0266,-0.47976 0.0901,-0.45144 0.3985,-0.77652 0.72293,-1.08051 0.24818,-0.20448 0.5317,-0.36149 0.83883,-0.45771 0.18136,-0.0568 0.29,-0.0724 0.47649,-0.10877 0.34068,-0.048 0.68769,-0.0834 1.03223,-0.0641 0.22201,0.0125 0.31989,0.0371 0.54472,0.0766 0.60717,0.11846 1.17622,0.37863 1.65237,0.77566 0.096,0.08 0.18287,0.17001 0.27443,0.25508 0.29189,0.31957 0.50166,0.70194 0.5909,1.12729 0.0434,0.20507 0.0363,0.29482 0.0403,0.49854 -0.0185,0.46482 -0.19927,0.7036 -0.48631,1.04833 -0.30378,0.34528 -0.65204,0.64725 -0.9798,0.96906 -0.20165,0.1951 -0.3873,0.40527 -0.57155,0.61654 -0.0414,0.0447 -0.10012,0.11249 -0.14095,0.14423 -0.007,0.004 -0.0166,0.009 -0.0268,0.0146 -0.35511,0.2025 -0.0688,0.70461 0.28637,0.50211 0.0179,-0.0102 0.0173,-0.01 0.0661,-0.0381 0.094,-0.0672 0.17506,-0.15002 0.25208,-0.236 0.17756,-0.19776 0.3565,-0.39443 0.54771,-0.5793 0.34605,-0.33444 0.71212,-0.64968 1.02776,-1.01405 0.384,-0.47268 0.59701,-0.81582 0.62251,-1.44227 0,-0.10199 2e-5,-0.20443 -0.008,-0.30604 -0.0605,-0.66447 -0.357,-1.26495 -0.80784,-1.75157 -0.10813,-0.0993 -0.21103,-0.20456 -0.32451,-0.2977 -0.55335,-0.45417 -1.21341,-0.74883 -1.91547,-0.87936 -0.26827,-0.0431 -0.37105,-0.0675 -0.63681,-0.0814 -0.0482,-0.003 -0.0966,-0.004 -0.14483,-0.004 z m -1.47595,2.24178 c -0.0951,0.0295 -0.2079,0.0255 -0.28516,0.0882 -0.1753,0.14213 -0.0815,0.3729 -0.0346,0.53966 0.034,0.10292 0.07,0.20511 0.10697,0.30692 0.0996,0.39173 0.22634,0.77651 0.33495,1.16603 0.0711,0.23295 0.11231,0.47898 0.21454,0.70177 0.0139,0.0303 0.0157,0.0791 0.0479,0.0882 0.15056,0.0428 0.31072,0.0382 0.46607,0.0575 0.03,-0.10898 0.0759,-0.21476 0.09,-0.32689 0.007,-0.055 -0.0766,-0.37268 -0.0825,-0.39543 -0.0694,-0.25929 -0.15786,-0.51264 -0.24464,-0.76643 -0.0908,-0.2654 -0.19581,-0.52539 -0.29442,-0.78789 0.26435,0.0624 0.5328,0.10935 0.79923,0.16003 0.31062,0.0604 0.63262,0.10602 0.92942,0.2211 0.0184,0.009 0.0376,0.0185 0.056,0.0277 0.0564,0.0274 0.10988,0.0384 0.15911,0.0369 -0.15041,0.17565 -0.27258,0.37259 -0.3719,0.58435 -0.0497,0.11674 -0.0927,0.23702 -0.11115,0.36295 -0.006,0.047 0,0.0944 0,0.14155 0,0.0748 -0.0157,0.1488 -0.0294,0.2223 -0.003,0.0114 -0.003,0.014 -0.004,0.0197 -0.14102,0.33173 0.32487,0.58395 0.52178,0.24614 0.0243,-0.0488 0.0427,-0.0984 0.0519,-0.15227 0.0237,-0.11383 0.0421,-0.22961 0.0408,-0.34626 -9e-5,-0.003 0,-0.0552 -0.003,-0.0668 0.0143,-0.0611 0.0423,-0.11942 0.0647,-0.1776 0.11112,-0.23394 0.25818,-0.44332 0.45234,-0.61714 0.15172,-0.13597 0.31077,-0.26201 0.489,-0.36206 0.0109,-0.008 0.13434,-0.0864 0.12903,-0.10548 -0.11475,-0.41376 -0.0265,-0.50429 -0.26372,-0.48989 -0.14895,0.008 -0.29811,0.0136 -0.44727,0.01 -0.21717,-0.009 -0.43422,-0.0225 -0.65052,-0.0435 -0.092,-0.0106 -0.16656,0.0107 -0.2223,0.0503 -0.22333,-0.0622 -0.45152,-0.10843 -0.6794,-0.14781 -0.41089,-0.0782 -0.82103,-0.15898 -1.22982,-0.24584 z m -0.22378,4.47043 v 0 c -0.004,0.007 -0.009,0.0152 -0.0188,0.0122 -0.0513,0.0153 0.0156,-0.0114 0.0184,-0.0122 z" />
    <rect
       style="fill:none;stroke:none;stroke-width:0.264583"
       id="rect8"
       width="21.707838"
       height="21.707838"
       x="86.390312"
       y="150.31171" />
  </g>
</svg>
